HIERARCHY
ROOT hip
{
	OFFSET 0.000000 0.000000 0.000000 
	CHANNELS 6 Xposition Yposition Zposition Xrotation Zrotation Yrotation
	JOINT abdomen
	{
		OFFSET 0.000000 3.402643 0.000000 
		CHANNELS 3 Xrotation Zrotation Yrotation
		JOINT chest
		{
			OFFSET 0.000000 8.438565 -0.680529 
			CHANNELS 3 Xrotation Zrotation Yrotation
			JOINT neck
			{
				OFFSET 0.000000 10.207942 -0.272212 
				CHANNELS 3 Xrotation Zrotation Yrotation
				JOINT head
				{
					OFFSET 0.000000 3.130431 0.000000 
					CHANNELS 3 Xrotation Zrotation Yrotation
					End Site
					{
						OFFSET 0.000000 3.130435 0.000000 
					}
				}
			}
			JOINT lCollar
			{
				OFFSET 3.470700 6.669187 -0.816635 
				CHANNELS 3 Yrotation Zrotation Xrotation
				JOINT lShldr
				{
					OFFSET 3.198488 0.000000 0.000000 
					CHANNELS 3 Zrotation Yrotation Xrotation
					JOINT lForeArm
					{
						OFFSET 10.139888 0.000000 0.000000 
						CHANNELS 3 Yrotation Zrotation Xrotation
						JOINT lHand
						{
							OFFSET 8.370511 0.000000 0.000000 
							CHANNELS 3 Zrotation Yrotation Xrotation
							End Site
							{
								OFFSET 4.083176 0.000000 0.000000 
							}
						}
					}
				}
			}
			JOINT rCollar
			{
				OFFSET -3.470700 6.669187 -0.816635 
				CHANNELS 3 Yrotation Zrotation Xrotation
				JOINT rShldr
				{
					OFFSET -3.198488 0.000000 0.000000 
					CHANNELS 3 Zrotation Yrotation Xrotation
					JOINT rForeArm
					{
						OFFSET -10.139888 0.000000 0.000000 
						CHANNELS 3 Yrotation Zrotation Xrotation
						JOINT rHand
						{
							OFFSET -8.370511 0.000000 0.000000 
							CHANNELS 3 Zrotation Yrotation Xrotation
							End Site
							{
								OFFSET -4.083176 0.000000 0.000000 
							}
						}
					}
				}
			}
		}
	}
	JOINT lThigh
	{
		OFFSET 5.308129 -1.633274 1.361059 
		CHANNELS 3 Xrotation Zrotation Yrotation
		JOINT lShin
		{
			OFFSET -2.041588 -20.007561 0.000000 
			CHANNELS 3 Xrotation Zrotation Yrotation
			JOINT lFoot
			{
				OFFSET 0.000000 -19.190928 -1.224953 
				CHANNELS 3 Xrotation Yrotation Zrotation
				End Site
				{
					OFFSET 0.000000 -2.449906 4.627600 
				}
			}
		}
	}
	JOINT rThigh
	{
		OFFSET -5.308129 -1.633274 1.361059 
		CHANNELS 3 Xrotation Zrotation Yrotation
		JOINT rShin
		{
			OFFSET 2.041588 -20.007561 0.000000 
			CHANNELS 3 Xrotation Zrotation Yrotation
			JOINT rFoot
			{
				OFFSET 0.000000 -19.190928 -1.224953 
				CHANNELS 3 Xrotation Yrotation Zrotation
				End Site
				{
					OFFSET 0.000000 -2.449906 4.627600 
				}
			}
		}
	}
}
MOTION
Frames: 13
Frame Time: 0.033333
0.013009 46.419250 1.077067 -0.548859 -4.872824 86.579659 0.000000 0.000000 0.000000 -7.802737 -0.048376 6.530066 42.629883 -0.592736 -0.279709 -26.674900 4.956914 11.023751 -12.070982 16.955008 25.000000 -101.250359 2.259605 4.621387 -33.572170 15.652656 80.637497 -13.463735 -12.734688 -54.463715 4.307462 -13.151690 25.000000 82.423981 7.425726 78.753365 8.694285 -35.202187 17.572029 31.333656 0.200694 -80.767464 11.754664 4.941204 18.579044 10.783620 2.860894 0.744542 -0.908368 -11.419309 -8.532072 11.626804 -0.556446 0.781401 8.502443 -2.733196 -0.767503 4.740423 5.490680 15.730453 
-0.014718 46.405010 0.664165 -0.382208 -4.814347 87.063210 0.000000 0.000000 0.000000 -7.675817 -0.174206 6.498088 42.559311 -0.299192 -0.258145 -26.681549 4.740508 10.647323 -12.342791 17.113422 25.000000 -101.543961 1.530926 4.723691 -34.036247 15.669036 81.983299 -14.183264 -11.924614 -54.414215 3.756875 -13.468494 25.000000 82.580231 7.600972 78.806725 8.610561 -35.235462 17.668898 31.370184 0.328363 -80.773979 12.453496 3.886625 18.175419 9.124608 3.290800 0.939851 -0.218671 -11.851717 -8.546441 10.697580 -1.493651 0.521509 10.273072 -2.187385 -0.526710 4.259369 5.005190 16.230938 
0.012429 46.461636 0.336068 -0.606871 -3.896266 86.603645 0.000000 0.000000 0.000000 -6.855478 0.096958 6.560609 43.002396 -0.712758 -0.291525 -26.864246 5.001244 11.046355 -12.157325 16.574060 25.000000 -100.960678 1.286686 4.395914 -34.384586 15.559745 82.547737 -14.353414 -10.973845 -54.602196 4.565847 -13.306311 25.000000 82.765511 7.962795 78.816223 7.923691 -35.306400 17.096529 31.113680 0.499265 -80.755920 14.563104 3.594286 17.949953 7.343410 2.843487 0.965086 0.389316 -11.313075 -8.419578 10.499100 -1.580573 0.486158 12.265702 -2.461290 -0.405866 3.740718 5.363382 16.841249 
-0.017837 46.449017 -0.009198 -0.577389 -3.720515 86.521759 0.000000 0.000000 0.000000 -6.728520 0.067889 6.554490 43.248802 -0.869768 -0.304648 -26.867626 5.208649 11.162429 -12.045187 16.553902 25.000000 -100.768478 0.924856 4.277416 -35.073727 15.270922 83.895500 -14.824123 -9.908474 -54.728424 4.932820 -13.418391 25.000000 83.432724 8.237680 79.147110 6.751622 -35.568878 16.425180 31.229963 0.530805 -80.775597 15.247547 2.969338 17.680082 6.287523 2.891879 1.039804 0.785021 -11.122672 -8.235419 9.259698 -2.166636 0.338298 14.707737 -2.215483 -0.151902 3.226877 5.342103 17.573759 
-0.081573 46.415817 -0.467865 -0.097865 -3.740229 87.242699 0.000000 0.000000 0.000000 -6.718929 -0.417038 6.445613 43.351768 -0.504635 -0.277816 -26.947020 5.067905 10.772953 -12.751581 16.574392 25.000000 -100.912788 0.311289 4.308744 -35.783455 15.132950 84.886139 -15.658140 -9.082405 -54.700867 4.486319 -13.441865 25.000000 83.479187 8.279518 79.165688 6.434060 -35.706615 16.245106 31.076054 0.430164 -80.778702 15.224843 1.564084 17.190447 5.525007 3.438033 1.213146 1.180048 -11.605951 -7.723421 7.685073 -3.838148 -0.131710 17.514479 -1.015967 0.337743 2.609329 4.857802 18.426409 
-0.156525 46.389786 -0.798215 -0.185910 -3.583966 86.886597 0.000000 0.000000 0.000000 -6.601840 -0.523847 6.418047 43.558151 -0.632433 -0.295544 -26.956411 5.362500 11.070657 -12.389197 16.573095 25.000000 -100.502136 0.234321 4.089997 -36.225636 14.620288 84.199738 -16.362011 -8.260163 -54.830952 5.281706 -13.106062 25.000000 83.580017 8.577847 79.147316 6.098898 -35.939289 15.881501 31.204126 0.354496 -80.787727 15.696674 1.309923 17.064056 4.949069 3.047639 1.168805 1.478703 -11.309144 -6.281124 5.784529 -4.125883 -0.198803 20.882072 -1.146152 0.602029 1.730301 5.073973 19.066162 
-0.235978 46.347870 -1.136655 -0.009785 -3.574219 87.090454 0.000000 0.000000 0.000000 -6.602367 -0.892480 6.333753 43.712189 -0.384826 -0.268844 -26.926519 5.356504 10.815375 -12.355967 16.630058 25.000000 -100.562637 -0.110988 4.100552 -36.392387 14.670034 84.575218 -16.477135 -7.600110 -55.015594 5.329750 -12.798443 25.000000 83.620697 8.726425 79.133263 5.619164 -36.161098 15.959902 30.919477 0.964324 -80.742035 15.813393 0.548849 16.787106 4.359065 3.229022 1.267631 1.770394 -11.360315 -5.985223 4.099870 -5.077118 -0.451873 23.767691 -0.547264 1.004907 0.940793 4.984848 19.282835 
-0.320857 46.306126 -1.453139 0.117418 -3.593742 87.160011 0.000000 0.000000 0.000000 -6.642025 -1.173712 6.279216 43.839142 -0.383973 -0.269735 -27.076529 5.394340 10.826287 -12.199959 16.374105 25.000000 -100.225479 -0.269903 3.911957 -36.372799 14.643971 84.456810 -16.272696 -7.054508 -55.254528 5.403749 -12.448001 25.000000 83.236511 8.624712 78.923470 6.228352 -36.469616 16.283159 30.881847 0.895212 -80.735512 15.860641 -0.056281 16.586044 3.870590 3.248921 1.282683 2.002479 -11.232275 -6.211093 2.273112 -5.913064 -0.650363 26.695707 -0.010416 1.379078 0.087818 5.005092 19.194965 
-0.400147 46.275585 -1.729017 0.273956 -3.525351 87.170082 0.000000 0.000000 0.000000 -6.613766 -1.552107 6.195499 44.016220 -0.540550 -0.283260 -27.136385 5.549591 11.039268 -12.080060 15.793704 25.000000 -99.346077 -0.225275 3.455020 -36.228142 14.448903 83.693390 -15.805285 -6.938116 -55.455585 5.448410 -11.993733 25.000000 82.568878 8.359600 78.592651 7.683790 -36.880486 16.921429 30.858196 0.611489 -80.737961 16.023796 -0.526268 16.415819 3.476595 3.077286 1.284589 2.265545 -11.198246 -5.476800 0.556360 -6.689694 -0.845687 29.577536 0.349508 1.718265 -0.787473 5.096891 18.958508 
-0.461980 46.228981 -1.963970 0.469724 -3.691282 87.518021 0.000000 0.000000 0.000000 -6.839873 -1.939235 6.111337 44.171520 -0.430463 -0.278219 -27.053677 5.491533 10.730825 -12.508211 15.397096 25.000000 -98.840218 -0.268030 3.187255 -35.881851 14.541148 82.616470 -15.698922 -7.373647 -55.406017 4.981687 -11.782080 25.000000 82.389267 8.075947 78.560989 8.367936 -37.203648 17.476009 30.741333 0.609177 -80.728119 15.870182 -1.051788 16.244728 3.073727 3.076074 1.279012 2.551815 -11.593742 -4.570670 -0.634311 -7.454031 -1.064152 31.285685 0.781065 1.982772 -1.294771 4.912080 18.827387 
-0.520450 46.186996 -2.141118 0.557924 -3.886536 87.744812 0.000000 0.000000 0.000000 -7.085420 -2.219267 6.056823 44.347801 -0.488713 -0.280293 -26.938438 5.387640 10.528187 -12.765372 15.234880 25.000000 -98.501038 -0.270352 3.008839 -35.214500 14.770411 81.403351 -15.465554 -8.732535 -55.134472 4.705848 -11.567957 25.000000 82.194855 7.703717 78.542084 9.256278 -37.486145 17.938478 30.787252 0.258456 -80.724823 15.693382 -1.314719 16.162430 2.791588 2.969604 1.310808 2.835103 -11.705700 -4.412347 -1.590606 -7.883612 -1.170080 32.491520 0.937336 2.112176 -1.552707 4.819751 18.870483 
-0.573688 46.131710 -2.254359 0.528790 -4.238101 87.948593 0.000000 0.000000 0.000000 -7.457759 -2.401412 6.017106 44.387093 -0.513358 -0.288664 -26.894506 5.318700 10.505449 -12.959867 15.538137 25.000000 -98.613701 -0.344531 3.058594 -34.429668 15.090615 80.629333 -15.139931 -10.146266 -54.841434 4.369003 -11.470608 25.000000 82.019791 7.332653 78.532730 10.194579 -37.683582 18.332172 30.784489 -0.093230 -80.735420 15.252635 -1.444733 16.169182 2.743418 2.999542 1.292000 2.981755 -11.805604 -4.348033 -2.372617 -8.093878 -1.210552 33.170040 1.083745 2.215547 -1.657568 4.730338 18.982525 
-0.625135 46.061047 -2.305037 0.440971 -4.755719 88.087753 0.000000 0.000000 0.000000 -7.986077 -2.485456 6.002548 44.299370 -0.532231 -0.288969 -26.846100 5.329875 10.620619 -13.315866 16.006939 25.000000 -98.885139 -0.338762 3.207149 -33.856937 15.419766 80.053612 -15.034064 -11.011824 -54.609562 3.973493 -11.637372 25.000000 82.127144 7.144655 78.653854 10.703584 -37.786369 18.567930 30.656641 -0.027404 -80.726364 14.588538 -1.454467 16.207901 2.786490 3.120244 1.331712 2.983705 -11.874146 -4.733770 -3.005898 -8.108494 -1.181626 33.324062 1.196474 2.225746 -1.604287 4.671038 19.110826 
